<svg width="695" height="253" viewBox="0 0 695 253" fill="none" xmlns="http://www.w3.org/2000/svg">
<rect width="695" height="253" fill="white"/>
<path d="M61.18 188.44V190.564H57.604V202.864H61.18V205H51.22V202.864H54.796V190.564H51.22V188.44H61.18ZM78.4506 205L73.1826 190.912C73.2066 191.16 73.2386 191.512 73.2786 191.968C73.3266 192.424 73.3706 192.952 73.4106 193.552C73.4586 194.152 73.4986 194.788 73.5306 195.46C73.5626 196.132 73.5786 196.804 73.5786 197.476V205H71.1066V188.44H74.7186L79.9986 202.54C79.9586 202.204 79.9066 201.712 79.8426 201.064C79.7866 200.408 79.7306 199.648 79.6746 198.784C79.6266 197.912 79.6026 196.98 79.6026 195.988V188.44H82.0746V205H78.4506ZM98.3373 190.684V205H95.5533V190.684H90.5853V188.44H103.425L103.137 190.684H98.3373ZM115.668 190.552V195.532H121.668V197.644H115.668V202.888H122.976V205H112.884V188.44H122.844L122.532 190.552H115.668ZM133.431 205V188.44H136.215V202.672H143.631L143.331 205H133.431ZM163.133 188.44V190.564H159.557V202.864H163.133V205H153.173V202.864H156.749V190.564H153.173V188.44H163.133ZM178.976 205.324C177.568 205.324 176.36 205.004 175.352 204.364C174.344 203.716 173.572 202.752 173.036 201.472C172.5 200.192 172.232 198.6 172.232 196.696C172.232 195.28 172.424 194.036 172.808 192.964C173.192 191.892 173.72 190.996 174.392 190.276C175.064 189.556 175.832 189.016 176.696 188.656C177.568 188.288 178.488 188.104 179.456 188.104C180.584 188.104 181.524 188.272 182.276 188.608C183.036 188.944 183.74 189.412 184.388 190.012L182.828 191.632C182.324 191.168 181.808 190.828 181.28 190.612C180.76 190.388 180.176 190.276 179.528 190.276C178.944 190.276 178.388 190.392 177.86 190.624C177.34 190.848 176.876 191.212 176.468 191.716C176.06 192.212 175.736 192.872 175.496 193.696C175.264 194.512 175.148 195.516 175.148 196.708C175.148 198.244 175.296 199.488 175.592 200.44C175.888 201.384 176.328 202.072 176.912 202.504C177.504 202.936 178.236 203.152 179.108 203.152C179.612 203.152 180.092 203.092 180.548 202.972C181.004 202.852 181.436 202.68 181.844 202.456V197.896H179.036L178.736 195.772H184.544V203.8C183.76 204.24 182.924 204.604 182.036 204.892C181.156 205.18 180.136 205.324 178.976 205.324ZM197.23 190.552V195.532H203.23V197.644H197.23V202.888H204.538V205H194.446V188.44H204.406L204.094 190.552H197.23ZM221.185 205L215.917 190.912C215.941 191.16 215.973 191.512 216.013 191.968C216.061 192.424 216.105 192.952 216.145 193.552C216.193 194.152 216.233 194.788 216.265 195.46C216.297 196.132 216.313 196.804 216.313 197.476V205H213.841V188.44H217.453L222.733 202.54C222.693 202.204 222.641 201.712 222.577 201.064C222.521 200.408 222.465 199.648 222.409 198.784C222.361 197.912 222.337 196.98 222.337 195.988V188.44H224.809V205H221.185ZM241.072 190.684V205H238.288V190.684H233.32V188.44H246.16L245.872 190.684H241.072ZM508.214 193.66C508.214 192.9 508.066 192.292 507.77 191.836C507.482 191.38 507.07 191.048 506.534 190.84C506.006 190.632 505.382 190.528 504.662 190.528H502.67V196.972H504.698C505.394 196.972 506.006 196.868 506.534 196.66C507.062 196.452 507.474 196.108 507.77 195.628C508.066 195.148 508.214 194.492 508.214 193.66ZM511.142 193.636C511.142 194.924 510.866 195.968 510.314 196.768C509.77 197.568 509.01 198.156 508.034 198.532C507.058 198.908 505.938 199.096 504.674 199.096H502.67V205H499.886V188.44H504.482C506.562 188.44 508.19 188.868 509.366 189.724C510.55 190.572 511.142 191.876 511.142 193.636ZM520.852 205V188.44H523.636V202.672H531.052L530.752 205H520.852ZM548.479 201.016H542.563L541.411 205H538.579L543.847 188.44H547.303L552.583 205H549.631L548.479 201.016ZM543.139 198.868H547.891L545.527 190.6L543.139 198.868ZM567.322 190.684V205H564.538V190.684H559.57V188.44H572.41L572.122 190.684H567.322ZM584.988 190.552V195.82H591.216V197.932H584.988V205H582.204V188.44H592.392L592.08 190.552H584.988ZM613.047 196.72C613.047 198.424 612.811 199.924 612.339 201.22C611.867 202.508 611.163 203.516 610.227 204.244C609.291 204.964 608.131 205.324 606.747 205.324C605.371 205.324 604.211 204.972 603.267 204.268C602.331 203.556 601.627 202.56 601.155 201.28C600.683 199.992 600.447 198.48 600.447 196.744C600.447 195.032 600.683 193.532 601.155 192.244C601.627 190.948 602.331 189.936 603.267 189.208C604.211 188.472 605.371 188.104 606.747 188.104C608.131 188.104 609.291 188.46 610.227 189.172C611.163 189.884 611.867 190.888 612.339 192.184C612.811 193.472 613.047 194.984 613.047 196.72ZM610.167 196.72C610.167 194.576 609.899 192.968 609.363 191.896C608.835 190.816 607.963 190.276 606.747 190.276C605.531 190.276 604.655 190.82 604.119 191.908C603.591 192.988 603.327 194.6 603.327 196.744C603.327 198.88 603.599 200.484 604.143 201.556C604.687 202.62 605.555 203.152 606.747 203.152C607.979 203.152 608.855 202.616 609.375 201.544C609.903 200.464 610.167 198.856 610.167 196.72ZM633.054 193.228C633.054 194.044 632.886 194.756 632.549 195.364C632.221 195.964 631.77 196.464 631.194 196.864C630.626 197.264 629.99 197.572 629.286 197.788L633.978 205H630.738L626.574 198.184H624.762V205H621.978V188.44H626.598C628.726 188.44 630.334 188.84 631.422 189.64C632.51 190.432 633.054 191.628 633.054 193.228ZM630.138 193.228C630.138 192.268 629.858 191.576 629.298 191.152C628.746 190.72 627.898 190.504 626.754 190.504H624.762V196.144H626.814C627.878 196.144 628.698 195.92 629.274 195.472C629.85 195.016 630.138 194.268 630.138 193.228ZM653.18 188.44L654.116 205H651.572L651.176 196.936C651.152 196.328 651.132 195.74 651.116 195.172C651.108 194.604 651.104 194.06 651.104 193.54C651.104 193.02 651.108 192.54 651.116 192.1C651.132 191.652 651.148 191.248 651.164 190.888L648.728 202.084H646.304L643.688 190.888C643.712 191.232 643.732 191.636 643.748 192.1C643.764 192.556 643.776 193.048 643.784 193.576C643.792 194.104 643.792 194.656 643.784 195.232C643.784 195.808 643.776 196.384 643.76 196.96L643.436 205H640.94L641.876 188.44H645.212L647.576 199.54L649.832 188.44H653.18Z" fill="#B40A32"/>
<path d="M286.149 188.44L287.085 205H284.541L284.145 196.936C284.121 196.328 284.101 195.74 284.085 195.172C284.077 194.604 284.073 194.06 284.073 193.54C284.073 193.02 284.077 192.54 284.085 192.1C284.101 191.652 284.117 191.248 284.133 190.888L281.697 202.084H279.273L276.657 190.888C276.681 191.232 276.701 191.636 276.717 192.1C276.733 192.556 276.745 193.048 276.753 193.576C276.761 194.104 276.761 194.656 276.753 195.232C276.753 195.808 276.745 196.384 276.729 196.96L276.405 205H273.909L274.845 188.44H278.181L280.545 199.54L282.801 188.44H286.149ZM307.188 196.72C307.188 198.424 306.952 199.924 306.48 201.22C306.008 202.508 305.304 203.516 304.368 204.244C303.432 204.964 302.272 205.324 300.888 205.324C299.512 205.324 298.352 204.972 297.408 204.268C296.472 203.556 295.768 202.56 295.296 201.28C294.824 199.992 294.588 198.48 294.588 196.744C294.588 195.032 294.824 193.532 295.296 192.244C295.768 190.948 296.472 189.936 297.408 189.208C298.352 188.472 299.512 188.104 300.888 188.104C302.272 188.104 303.432 188.46 304.368 189.172C305.304 189.884 306.008 190.888 306.48 192.184C306.952 193.472 307.188 194.984 307.188 196.72ZM304.308 196.72C304.308 194.576 304.04 192.968 303.504 191.896C302.976 190.816 302.104 190.276 300.888 190.276C299.672 190.276 298.796 190.82 298.26 191.908C297.732 192.988 297.468 194.6 297.468 196.744C297.468 198.88 297.74 200.484 298.284 201.556C298.828 202.62 299.696 203.152 300.888 203.152C302.12 203.152 302.996 202.616 303.516 201.544C304.044 200.464 304.308 198.856 304.308 196.72ZM323.138 205L317.87 190.912C317.894 191.16 317.926 191.512 317.966 191.968C318.014 192.424 318.058 192.952 318.098 193.552C318.146 194.152 318.186 194.788 318.218 195.46C318.25 196.132 318.266 196.804 318.266 197.476V205H315.794V188.44H319.406L324.686 202.54C324.646 202.204 324.594 201.712 324.53 201.064C324.474 200.408 324.418 199.648 324.362 198.784C324.314 197.912 324.29 196.98 324.29 195.988V188.44H326.762V205H323.138ZM346.649 188.44V190.564H343.073V202.864H346.649V205H336.689V202.864H340.265V190.564H336.689V188.44H346.649ZM363.415 190.684V205H360.631V190.684H355.663V188.44H368.503L368.215 190.684H363.415ZM388.75 196.72C388.75 198.424 388.514 199.924 388.042 201.22C387.57 202.508 386.866 203.516 385.93 204.244C384.994 204.964 383.834 205.324 382.45 205.324C381.074 205.324 379.914 204.972 378.97 204.268C378.034 203.556 377.33 202.56 376.858 201.28C376.386 199.992 376.15 198.48 376.15 196.744C376.15 195.032 376.386 193.532 376.858 192.244C377.33 190.948 378.034 189.936 378.97 189.208C379.914 188.472 381.074 188.104 382.45 188.104C383.834 188.104 384.994 188.46 385.93 189.172C386.866 189.884 387.57 190.888 388.042 192.184C388.514 193.472 388.75 194.984 388.75 196.72ZM385.87 196.72C385.87 194.576 385.602 192.968 385.066 191.896C384.538 190.816 383.666 190.276 382.45 190.276C381.234 190.276 380.358 190.82 379.822 191.908C379.294 192.988 379.03 194.6 379.03 196.744C379.03 198.88 379.302 200.484 379.846 201.556C380.39 202.62 381.258 203.152 382.45 203.152C383.682 203.152 384.558 202.616 385.078 201.544C385.606 200.464 385.87 198.856 385.87 196.72ZM408.757 193.228C408.757 194.044 408.589 194.756 408.253 195.364C407.925 195.964 407.473 196.464 406.897 196.864C406.329 197.264 405.693 197.572 404.989 197.788L409.681 205H406.441L402.277 198.184H400.465V205H397.681V188.44H402.301C404.429 188.44 406.037 188.84 407.125 189.64C408.213 190.432 408.757 191.628 408.757 193.228ZM405.841 193.228C405.841 192.268 405.561 191.576 405.001 191.152C404.449 190.72 403.601 190.504 402.457 190.504H400.465V196.144H402.517C403.581 196.144 404.401 195.92 404.977 195.472C405.553 195.016 405.841 194.268 405.841 193.228ZM428.211 188.44V190.564H424.635V202.864H428.211V205H418.251V202.864H421.827V190.564H418.251V188.44H428.211ZM445.482 205L440.214 190.912C440.238 191.16 440.27 191.512 440.31 191.968C440.358 192.424 440.402 192.952 440.442 193.552C440.49 194.152 440.53 194.788 440.562 195.46C440.594 196.132 440.61 196.804 440.61 197.476V205H438.138V188.44H441.75L447.03 202.54C446.99 202.204 446.938 201.712 446.874 201.064C446.818 200.408 446.762 199.648 446.706 198.784C446.658 197.912 446.634 196.98 446.634 195.988V188.44H449.106V205H445.482ZM464.445 205.324C463.037 205.324 461.829 205.004 460.821 204.364C459.813 203.716 459.041 202.752 458.505 201.472C457.969 200.192 457.701 198.6 457.701 196.696C457.701 195.28 457.893 194.036 458.277 192.964C458.661 191.892 459.189 190.996 459.861 190.276C460.533 189.556 461.301 189.016 462.165 188.656C463.037 188.288 463.957 188.104 464.925 188.104C466.053 188.104 466.993 188.272 467.745 188.608C468.505 188.944 469.209 189.412 469.857 190.012L468.297 191.632C467.793 191.168 467.277 190.828 466.749 190.612C466.229 190.388 465.645 190.276 464.997 190.276C464.413 190.276 463.857 190.392 463.329 190.624C462.809 190.848 462.345 191.212 461.937 191.716C461.529 192.212 461.205 192.872 460.965 193.696C460.733 194.512 460.617 195.516 460.617 196.708C460.617 198.244 460.765 199.488 461.061 200.44C461.357 201.384 461.797 202.072 462.381 202.504C462.973 202.936 463.705 203.152 464.577 203.152C465.081 203.152 465.561 203.092 466.017 202.972C466.473 202.852 466.905 202.68 467.313 202.456V197.896H464.505L464.205 195.772H470.013V203.8C469.229 204.24 468.393 204.604 467.505 204.892C466.625 205.18 465.605 205.324 464.445 205.324Z" fill="#010101"/>
<path d="M156.96 54.68V66.008H137.888V131.608H156.96V143H103.84V131.608H122.912V66.008H103.84V54.68H156.96ZM379.452 80.216C379.452 84.568 378.556 88.3653 376.764 91.608C375.015 94.808 372.604 97.4747 369.532 99.608C366.503 101.741 363.111 103.384 359.356 104.536L384.38 143H367.1L344.892 106.648H335.228V143H320.38V54.68H345.02C356.369 54.68 364.945 56.8133 370.748 61.08C376.551 65.304 379.452 71.6827 379.452 80.216ZM363.9 80.216C363.9 75.096 362.407 71.4053 359.42 69.144C356.476 66.84 351.953 65.688 345.852 65.688H335.228V95.768H346.172C351.847 95.768 356.22 94.5733 359.292 92.184C362.364 89.752 363.9 85.7627 363.9 80.216Z" fill="black"/>
<path d="M269.294 54.68L274.286 143H260.718L258.606 99.992C258.478 96.7493 258.371 93.6133 258.286 90.584C258.243 87.5547 258.222 84.6533 258.222 81.88C258.222 79.1067 258.243 76.5467 258.286 74.2C258.371 71.8107 258.457 69.656 258.542 67.736L245.55 127.448H232.622L218.67 67.736C218.798 69.5707 218.905 71.7253 218.99 74.2C219.075 76.632 219.139 79.256 219.182 82.072C219.225 84.888 219.225 87.832 219.182 90.904C219.182 93.976 219.139 97.048 219.054 100.12L217.326 143H204.014L209.006 54.68H226.798L239.406 113.88L251.438 54.68H269.294ZM575.32 143L547.224 67.864C547.352 69.1867 547.523 71.064 547.736 73.496C547.992 75.928 548.227 78.744 548.44 81.944C548.696 85.144 548.909 88.536 549.08 92.12C549.251 95.704 549.336 99.288 549.336 102.872V143H536.152V54.68H555.416L583.576 129.88C583.363 128.088 583.085 125.464 582.744 122.008C582.445 118.509 582.147 114.456 581.848 109.848C581.592 105.197 581.464 100.227 581.464 94.936V54.68H594.648V143H575.32Z" fill="#B40A32"/>
<path d="M481.438 83.625C481.438 83.625 487.75 89.9375 487.75 100.458C487.75 110.979 481.438 117.292 481.438 117.292M494.063 71C494.063 71 504.583 81.5208 504.583 100.458C504.583 119.396 494.063 129.917 494.063 129.917M435.146 83.625C435.146 83.625 428.833 89.9375 428.833 100.458C428.833 110.979 435.146 117.292 435.146 117.292M422.521 71C422.521 71 412 81.5208 412 100.458C412 119.396 422.521 129.917 422.521 129.917" stroke="black" stroke-width="8" stroke-linecap="round" stroke-linejoin="round"/>
<path d="M458.292 104.667C459.408 104.667 460.478 104.223 461.267 103.434C462.057 102.645 462.5 101.574 462.5 100.458C462.5 99.3422 462.057 98.2718 461.267 97.4826C460.478 96.6934 459.408 96.25 458.292 96.25C457.176 96.25 456.105 96.6934 455.316 97.4826C454.527 98.2718 454.083 99.3422 454.083 100.458C454.083 101.574 454.527 102.645 455.316 103.434C456.105 104.223 457.176 104.667 458.292 104.667Z" fill="black" stroke="#B40A32" stroke-width="8" stroke-linecap="round" stroke-linejoin="round"/>
</svg>
